<svg width="232" height="42" viewBox="0 0 232 42" fill="none" xmlns="http://www.w3.org/2000/svg">
<path d="M20.016 11.428H12.168V34H9.288V11.428H1.44V8.8H20.016V11.428ZM38.0942 34H35.2502V23.272C35.2502 21.64 34.7942 20.452 33.8822 19.708C32.9702 18.94 31.7702 18.556 30.2822 18.556C29.4422 18.556 28.6502 18.736 27.9062 19.096C27.1862 19.432 26.5982 19.876 26.1422 20.428C25.6862 20.98 25.4582 21.532 25.4582 22.084V34H22.6142V8.8H25.4582V17.764C26.1062 17.044 26.9222 16.54 27.9062 16.252C28.8902 15.964 29.8142 15.832 30.6782 15.856C33.0062 15.952 34.8182 16.636 36.1142 17.908C37.4342 19.18 38.0942 20.968 38.0942 23.272V34ZM43.2588 13.624C42.7308 13.624 42.2748 13.444 41.8908 13.084C41.5308 12.7 41.3508 12.244 41.3508 11.716C41.3508 11.188 41.5308 10.744 41.8908 10.384C42.2748 10 42.7308 9.808 43.2588 9.808C43.7868 9.808 44.2308 10 44.5908 10.384C44.9748 10.744 45.1668 11.188 45.1668 11.716C45.1668 12.244 44.9748 12.7 44.5908 13.084C44.2308 13.444 43.7868 13.624 43.2588 13.624ZM44.6268 34H41.9268V16H44.6268V34ZM64.5368 34H61.6928V23.308C61.6928 22.156 61.4408 21.232 60.9368 20.536C60.4568 19.84 59.8328 19.348 59.0648 19.06C58.3208 18.748 57.5408 18.592 56.7248 18.592C55.9328 18.592 55.1408 18.76 54.3488 19.096C53.5808 19.432 52.9328 19.948 52.4048 20.644C51.8768 21.34 51.6128 22.228 51.6128 23.308V34H48.7688V16H51.6128V17.944C52.1648 17.2 52.9208 16.66 53.8808 16.324C54.8408 15.964 55.8368 15.784 56.8688 15.784C58.2608 15.784 59.5328 16.072 60.6848 16.648C61.8608 17.224 62.7968 18.076 63.4928 19.204C64.1888 20.308 64.5368 21.676 64.5368 23.308V34ZM67.7883 34V8.8H70.6683V22.012L76.6443 16.252H80.6043L73.1883 23.596L80.9643 34H77.6523L70.9923 25.54L70.6683 26.116V34H67.7883ZM84.3213 13.624C83.7933 13.624 83.3373 13.444 82.9533 13.084C82.5933 12.7 82.4133 12.244 82.4133 11.716C82.4133 11.188 82.5933 10.744 82.9533 10.384C83.3373 10 83.7933 9.808 84.3213 9.808C84.8493 9.808 85.2933 10 85.6533 10.384C86.0373 10.744 86.2293 11.188 86.2293 11.716C86.2293 12.244 86.0373 12.7 85.6533 13.084C85.2933 13.444 84.8493 13.624 84.3213 13.624ZM85.6893 34H82.9893V16H85.6893V34ZM105.599 34H102.755V23.308C102.755 22.156 102.503 21.232 101.999 20.536C101.519 19.84 100.895 19.348 100.127 19.06C99.3833 18.748 98.6033 18.592 97.7873 18.592C96.9953 18.592 96.2033 18.76 95.4113 19.096C94.6433 19.432 93.9953 19.948 93.4673 20.644C92.9393 21.34 92.6753 22.228 92.6753 23.308V34H89.8313V16H92.6753V17.944C93.2273 17.2 93.9833 16.66 94.9433 16.324C95.9033 15.964 96.8993 15.784 97.9313 15.784C99.3233 15.784 100.595 16.072 101.747 16.648C102.923 17.224 103.859 18.076 104.555 19.204C105.251 20.308 105.599 21.676 105.599 23.308V34ZM116.915 41.344C115.835 41.344 114.755 41.128 113.675 40.696C112.619 40.288 111.731 39.748 111.011 39.076L112.811 37.06C113.651 37.684 114.599 38.116 115.655 38.356C116.735 38.62 117.731 38.62 118.643 38.356C119.579 38.116 120.263 37.576 120.695 36.736C120.959 36.184 121.139 35.62 121.235 35.044C121.331 34.468 121.379 33.748 121.379 32.884C119.867 33.748 118.355 34.156 116.843 34.108C115.355 34.06 113.987 33.664 112.739 32.92C111.491 32.152 110.483 31.12 109.715 29.824C108.947 28.504 108.539 27.004 108.491 25.324C108.443 23.332 108.767 21.64 109.463 20.248C110.159 18.856 111.119 17.788 112.343 17.044C113.567 16.3 114.959 15.916 116.519 15.892C118.103 15.844 119.735 16.192 121.415 16.936V16H124.295V33.604C124.295 35.98 123.683 37.864 122.459 39.256C121.235 40.648 119.387 41.344 116.915 41.344ZM111.335 25.324C111.359 26.62 111.671 27.712 112.271 28.6C112.871 29.464 113.663 30.112 114.647 30.544C115.631 30.976 116.711 31.168 117.887 31.12C119.063 31.048 120.239 30.712 121.415 30.112V19.78C119.447 18.892 117.695 18.52 116.159 18.664C114.647 18.784 113.459 19.408 112.595 20.536C111.731 21.64 111.311 23.236 111.335 25.324ZM141.405 11.536H130.749V20.32H139.353V22.912H130.749V34H127.905V8.8H141.405V11.536ZM147.653 34.18C145.973 34.132 144.569 33.664 143.441 32.776C142.313 31.864 141.749 30.544 141.749 28.816C141.749 27.016 142.277 25.612 143.333 24.604C144.389 23.572 145.829 22.912 147.653 22.624C149.477 22.336 151.517 22.396 153.773 22.804V21.508C153.773 20.668 153.509 20.008 152.981 19.528C152.453 19.024 151.769 18.688 150.929 18.52C150.113 18.352 149.249 18.34 148.337 18.484C147.449 18.604 146.609 18.88 145.817 19.312C145.025 19.72 144.413 20.26 143.981 20.932L142.217 19.06C142.961 18.148 143.861 17.44 144.917 16.936C145.997 16.432 147.113 16.108 148.265 15.964C149.417 15.82 150.533 15.856 151.613 16.072C152.693 16.288 153.641 16.684 154.457 17.26C155.249 17.74 155.789 18.364 156.077 19.132C156.389 19.876 156.569 20.74 156.617 21.724C156.665 22.708 156.689 23.764 156.689 24.892V34H153.809V32.308C152.921 32.956 151.937 33.436 150.857 33.748C149.777 34.06 148.709 34.204 147.653 34.18ZM153.737 29.752V25.036C150.881 24.676 148.613 24.772 146.933 25.324C145.253 25.876 144.413 27.028 144.413 28.78C144.413 29.548 144.629 30.148 145.061 30.58C145.517 31.012 146.093 31.3 146.789 31.444C147.509 31.588 148.289 31.612 149.129 31.516C149.969 31.42 150.797 31.216 151.613 30.904C152.429 30.592 153.137 30.208 153.737 29.752ZM174.756 31.66C173.508 32.788 172.2 33.544 170.832 33.928C169.464 34.312 168.132 34.372 166.836 34.108C165.564 33.868 164.4 33.34 163.344 32.524C162.312 31.684 161.484 30.628 160.86 29.356C160.236 28.06 159.924 26.572 159.924 24.892C159.924 23.212 160.224 21.748 160.824 20.5C161.448 19.228 162.276 18.208 163.308 17.44C164.364 16.672 165.54 16.18 166.836 15.964C168.132 15.748 169.464 15.844 170.832 16.252C172.224 16.636 173.544 17.368 174.792 18.448L172.992 20.5C171.936 19.588 170.808 19.036 169.608 18.844C168.432 18.628 167.328 18.748 166.296 19.204C165.264 19.636 164.424 20.344 163.776 21.328C163.128 22.288 162.804 23.476 162.804 24.892C162.804 26.404 163.128 27.688 163.776 28.744C164.448 29.776 165.312 30.532 166.368 31.012C167.424 31.468 168.54 31.588 169.716 31.372C170.916 31.156 172.032 30.532 173.064 29.5L174.756 31.66ZM193.967 25.864H179.963C180.011 27.424 180.431 28.66 181.223 29.572C182.015 30.484 183.023 31.084 184.247 31.372C185.471 31.66 186.779 31.636 188.171 31.3C189.563 30.964 190.883 30.328 192.131 29.392L193.643 31.624C192.467 32.536 191.243 33.208 189.971 33.64C188.699 34.072 187.427 34.3 186.155 34.324C183.155 34.396 180.863 33.568 179.279 31.84C177.695 30.088 176.903 27.652 176.903 24.532C176.903 21.868 177.647 19.744 179.135 18.16C180.647 16.576 182.831 15.796 185.687 15.82C187.559 15.82 189.155 16.204 190.475 16.972C191.795 17.74 192.767 18.88 193.391 20.392C193.703 21.136 193.895 21.964 193.967 22.876C194.063 23.788 194.063 24.784 193.967 25.864ZM185.831 18.484C184.199 18.484 182.807 18.916 181.655 19.78C180.527 20.62 179.963 21.88 179.963 23.56H191.411C191.411 21.976 190.907 20.74 189.899 19.852C188.915 18.94 187.559 18.484 185.831 18.484Z" fill="white"/>
<path d="M214 36.018C223.389 36.018 231 28.4068 231 19.018C231 9.62916 223.389 2.01801 214 2.01801C204.611 2.01801 197 9.62916 197 19.018C197 28.4068 204.611 36.018 214 36.018Z" fill="#FFCB4C"/>
<path d="M210.524 23.036C210.379 22.92 210.266 22.762 210.212 22.572C210.078 22.112 210.342 21.654 210.802 21.551C215.33 20.53 218.379 22.914 218.508 23.016C218.892 23.322 218.967 23.861 218.681 24.221C218.395 24.579 217.853 24.622 217.47 24.318C217.36 24.234 214.947 22.395 211.288 23.22C211.014 23.281 210.734 23.204 210.524 23.036Z" fill="#65471B"/>
<path d="M209.119 15.83C210.293 15.83 211.244 14.6409 211.244 13.174C211.244 11.7071 210.293 10.518 209.119 10.518C207.945 10.518 206.994 11.7071 206.994 13.174C206.994 14.6409 207.945 15.83 209.119 15.83Z" fill="#65471B"/>
<path d="M220.375 16.892C221.549 16.892 222.5 15.7029 222.5 14.236C222.5 12.7691 221.549 11.58 220.375 11.58C219.201 11.58 218.25 12.7691 218.25 14.236C218.25 15.7029 219.201 16.892 220.375 16.892Z" fill="#65471B"/>
<path d="M213.276 37.149C213.276 37.149 214.541 36.738 214.705 35.797C214.878 34.825 214.081 34.63 214.081 34.63C214.081 34.63 215.122 34.422 215.253 33.254C215.376 32.153 214.392 31.891 214.392 31.891C214.392 31.891 215.362 31.491 215.408 30.352C215.446 29.393 214.413 28.924 214.413 28.924C214.413 28.924 219.451 27.703 219.969 27.583C220.485 27.463 221.289 26.968 221.038 25.889C220.789 24.809 219.834 24.771 219.341 24.886C218.847 25.001 212.597 26.452 210.441 26.954L209.002 27.288C208.462 27.415 208.217 27.178 208.598 26.776C209.106 26.24 209.431 25.647 209.544 24.663C209.663 23.628 209.312 22.35 209.111 21.854C208.737 20.933 208.106 20.205 207.377 19.955C206.24 19.565 205.432 20.276 205.835 21.516C206.439 23.37 206.043 24.891 205.002 25.809C202.553 27.966 201.414 29.504 202.172 32.782C203 36.357 206.549 38.658 210.124 37.83L213.276 37.149Z" fill="#F19020"/>
<path d="M205.296 8.351C205.132 8.263 204.993 8.127 204.905 7.952C204.689 7.524 204.865 7.025 205.298 6.84C209.564 5.009 212.997 6.797 213.141 6.874C213.574 7.105 213.749 7.621 213.532 8.028C213.316 8.433 212.792 8.574 212.359 8.346C212.236 8.283 209.527 6.914 206.081 8.393C205.824 8.502 205.534 8.478 205.296 8.351ZM217.431 12.101C217.275 12.003 217.145 11.858 217.069 11.677C216.882 11.235 217.092 10.75 217.537 10.593C221.918 9.057 225.222 11.073 225.36 11.16C225.775 11.42 225.915 11.947 225.672 12.338C225.43 12.728 224.896 12.833 224.481 12.576C224.361 12.504 221.754 10.955 218.214 12.197C217.948 12.288 217.661 12.243 217.431 12.101Z" fill="#65471B"/>
</svg>
